<svg width="32" height="32" viewBox="0 0 32 32" fill="none" xmlns="http://www.w3.org/2000/svg">
  <rect width="32" height="32" rx="8" fill="#2563EB"/>
  <path d="M9 8.5C9 7.67 9.67 7 10.5 7H17.5L22 11.5V23.5C22 24.33 21.33 25 20.5 25H10.5C9.67 25 9 24.33 9 23.5V8.5Z" fill="white"/>
  <path d="M17.5 7L22 11.5H18.5C17.95 11.5 17.5 11.05 17.5 10.5V7Z" fill="#DBEAFE"/>
  <path d="M12 13.5H19" stroke="#2563EB" stroke-width="1.5" stroke-linecap="round"/>
  <path d="M12 16.5H17.5" stroke="#2563EB" stroke-width="1.5" stroke-linecap="round" opacity="0.75"/>
  <path d="M21.5 18.5L26.5 15.5L26.5 21.5L21.5 18.5Z" fill="#1D4ED8"/>
  <path d="M24 14.5V22.5" stroke="white" stroke-width="1.25" stroke-linecap="round"/>
</svg>
